<svg width="225" height="147" viewBox="0 0 225 147" fill="none" xmlns="http://www.w3.org/2000/svg">
<path d="M62.2289 48.5645C58.7616 48.5645 55.6546 48.0016 52.9077 46.8759C50.1609 45.7502 47.9545 44.0841 46.2884 41.8776C44.6673 39.6711 43.8117 37.0144 43.7217 33.9074H56.0148C56.1949 35.6635 56.8028 37.0144 57.8385 37.96C58.8742 38.8606 60.2251 39.3109 61.8912 39.3109C63.6023 39.3109 64.9532 38.9282 65.9438 38.1627C66.9345 37.3521 67.4298 36.2489 67.4298 34.853C67.4298 33.6822 67.0246 32.7141 66.214 31.9486C65.4485 31.1831 64.4804 30.5526 63.3096 30.0573C62.1839 29.562 60.5628 28.9991 58.4464 28.3687C55.3844 27.4231 52.8852 26.4774 50.9489 25.5318C49.0127 24.5862 47.3466 23.1903 45.9507 21.3441C44.5547 19.4978 43.8568 17.0888 43.8568 14.1168C43.8568 9.7039 45.4553 6.25913 48.6524 3.78249C51.8495 1.26083 56.0148 0 61.1482 0C66.3716 0 70.5819 1.26083 73.779 3.78249C76.9761 6.25913 78.6873 9.72641 78.9124 14.1843H66.4167C66.3266 12.6533 65.7637 11.4601 64.728 10.6045C63.6924 9.70389 62.364 9.2536 60.7429 9.2536C59.347 9.2536 58.2212 9.63635 57.3657 10.4019C56.5101 11.1223 56.0823 12.1805 56.0823 13.5764C56.0823 15.1075 56.8028 16.3007 58.2438 17.1563C59.6847 18.0119 61.9362 18.935 64.9982 19.9256C68.0602 20.9613 70.5369 21.952 72.4281 22.8976C74.3644 23.8432 76.0305 25.2166 77.4264 27.0178C78.8223 28.819 79.5203 31.138 79.5203 33.9749C79.5203 36.6767 78.8223 39.1308 77.4264 41.3372C76.0755 43.5437 74.0942 45.2999 71.4825 46.6057C68.8708 47.9116 65.7862 48.5645 62.2289 48.5645Z" fill="#272727"/>
<path d="M118.104 15.6703C117.249 14.0943 116.01 12.901 114.389 12.0905C112.813 11.2349 110.944 10.8071 108.783 10.8071C105.045 10.8071 102.051 12.0454 99.7995 14.5221C97.548 16.9537 96.4223 20.2183 96.4223 24.316C96.4223 28.6839 97.593 32.1062 99.9346 34.5828C102.321 37.0144 105.586 38.2302 109.729 38.2302C112.565 38.2302 114.952 37.5097 116.888 36.0688C118.87 34.6278 120.311 32.5565 121.211 29.8547H106.554V21.3441H131.681V32.0836C130.825 34.9655 129.362 37.6448 127.29 40.1214C125.264 42.5981 122.675 44.6019 119.523 46.1329C116.37 47.6639 112.813 48.4294 108.85 48.4294C104.167 48.4294 99.9796 47.4163 96.2872 45.3899C92.6398 43.3186 89.7804 40.4592 87.709 36.8118C85.6827 33.1644 84.6695 28.9991 84.6695 24.316C84.6695 19.6329 85.6827 15.4677 87.709 11.8203C89.7804 8.12786 92.6398 5.26847 96.2872 3.24213C99.9346 1.17077 104.1 0.135087 108.783 0.135087C114.457 0.135087 119.23 1.50849 123.102 4.2553C127.02 7.00211 129.609 10.8071 130.87 15.6703H118.104Z" fill="#272727"/>
<path d="M180.496 48.0917H168.946L149.628 18.8449V48.0917H138.078V0.675445H149.628L168.946 30.0573V0.675445H180.496V48.0917Z" fill="#272727"/>
<path d="M61.0207 145.774C57.1481 145.774 53.2754 145.746 49.4027 145.774C47.7878 145.793 47.2194 145.229 47.631 143.563C48.8278 138.737 51.6709 135.296 56.1603 133.243C66.5162 128.518 76.8878 123.825 87.275 119.163C116.111 106.144 144.958 93.1255 173.815 80.1069C189.723 72.9207 205.628 65.728 221.529 58.5288C223.293 57.7449 223.732 58.2584 223.956 59.9909C225.868 74.8662 216.735 87.3662 204.886 92.1796C162.982 109.202 121.118 126.326 79.2945 143.551C75.4845 145.119 71.7412 146.103 67.6215 145.805C65.4343 145.648 63.2236 145.778 61.0207 145.774Z" fill="#4D4D4D"/>
<path d="M112.244 97.722C111.589 97.4712 110.947 97.2556 110.331 96.9773C82.1092 84.2461 53.8873 71.5096 25.6653 58.7679C23.1332 57.6234 23.141 57.592 24.6815 55.2402C25.924 53.3352 27.1587 51.4185 28.4013 49.5135C28.9108 48.7295 29.389 48.0083 30.5689 48.3376C41.7401 51.442 53.3032 52.073 64.7096 53.5586C82.2974 55.8477 97.5804 62.9267 110.312 75.3248C111.734 76.7124 112.585 76.6928 114.008 75.3248C125.179 64.6044 138.22 57.4235 153.554 54.5973C161.993 53.0295 170.546 52.4141 179.032 51.2381C183.618 50.5992 188.192 49.8819 192.637 48.5845C194.276 48.1102 195.318 48.3219 196.193 49.8819C197.264 51.8067 198.463 53.6571 199.783 55.4205C201.03 57.0707 200.822 57.8625 198.87 58.7326C185.625 64.6122 172.431 70.629 159.222 76.5909L114.38 96.7891C113.694 97.0988 113.001 97.3849 112.244 97.722Z" fill="#272727"/>
<path d="M0.00250362 63.9612C-0.0288541 57.5446 0.147533 57.38 5.74489 59.9043C36.5199 73.7801 67.2805 87.6794 98.0268 101.602C98.7323 101.924 99.9396 101.959 99.8651 102.982C99.8103 103.738 98.7245 103.86 98.0503 104.158C90.936 107.38 83.7943 110.555 76.6996 113.82C76.0644 114.142 75.3647 114.316 74.6527 114.33C73.9407 114.343 73.2348 114.196 72.5878 113.898C54.6982 106.541 36.7773 99.2661 18.8877 91.9087C13.3412 89.6226 8.59158 85.7522 5.23267 80.7815C1.87376 75.8107 0.0545664 69.9602 0.00250362 63.9612Z" fill="#4D4D4D"/>
<path d="M161.537 145.774C154.529 147.11 146.599 144.759 138.881 141.003C135.075 139.149 131.042 137.762 127.122 136.123C126.527 135.873 125.554 135.857 125.496 135.093C125.437 134.25 126.429 134.269 127.013 134.03C133.943 131.157 140.888 128.323 147.811 125.434C148.283 125.202 148.801 125.078 149.327 125.072C149.854 125.066 150.375 125.178 150.852 125.399C156.908 128.186 163.031 130.84 169.04 133.725C173.097 135.684 175.496 139.083 176.632 143.434C177.079 145.154 176.585 145.817 174.81 145.785C170.949 145.735 167.08 145.774 161.537 145.774Z" fill="#4D4D4D"/>
</svg>
